PathFileType	4	(X/Y/Z)	/Users/itak/Documents/Research/Walk-IL/dataset/trc/00137_00007.trc
DataRate	CameraRate	NumFrames	NumMarkers	Units	OrigDataRate	OrigDataStartFrame	OrigNumFrames
100.000000	100.000000	4	53	mm	100.000000	544	726
Frame#	Time	RPSI			LPSI			L3			STRN			T10			C7			CLAV			RBAK			LBAK			LSHO			LUPA			LAEL			LAOL			LWTS			LWPS			LFRA			LIFD			LHPS			LHTS			RSHO			RUPA			RAEL			RAOL			RWTS			RWPS			RFRA			RIFD			RHTS			RHPS			RBHD			LFHD			RFHD			LBHD			LHIP			RHIP			RASI			LASI			LKNE			LTHI			LANK			LTIP			LTOE			LMT1			LMT5			LHEE			RKNE			RTHI			RANK			RTIP			RTOE			RMT1			RMT5			RHEE			
		X1	Y1	Z1	X2	Y2	Z2	X3	Y3	Z3	X4	Y4	Z4	X5	Y5	Z5	X6	Y6	Z6	X7	Y7	Z7	X8	Y8	Z8	X9	Y9	Z9	X10	Y10	Z10	X11	Y11	Z11	X12	Y12	Z12	X13	Y13	Z13	X14	Y14	Z14	X15	Y15	Z15	X16	Y16	Z16	X17	Y17	Z17	X18	Y18	Z18	X19	Y19	Z19	X20	Y20	Z20	X21	Y21	Z21	X22	Y22	Z22	X23	Y23	Z23	X24	Y24	Z24	X25	Y25	Z25	X26	Y26	Z26	X27	Y27	Z27	X28	Y28	Z28	X29	Y29	Z29	X30	Y30	Z30	X31	Y31	Z31	X32	Y32	Z32	X33	Y33	Z33	X34	Y34	Z34	X35	Y35	Z35	X36	Y36	Z36	X37	Y37	Z37	X38	Y38	Z38	X39	Y39	Z39	X40	Y40	Z40	X41	Y41	Z41	X42	Y42	Z42	X43	Y43	Z43	X44	Y44	Z44	X45	Y45	Z45	X46	Y46	Z46	X47	Y47	Z47	X48	Y48	Z48	X49	Y49	Z49	X50	Y50	Z50	X51	Y51	Z51	X52	Y52	Z52	X53	Y53	Z53	

545	5.44	910.6881713867188	1104.907836914062	158.3139953613281	1043.929077148438	1110.383422851562	175.6409301757812	978.978759765625	1141.85498046875	158.4814453125	945.6713256835938	1345.056518554688	379.4779663085938	977.439208984375	1295.13671875	125.5218811035156	972.3678588867188	1587.529052734375	158.4022979736328	948.5501098632812	1479.477905273438	341.619873046875	898.2822265625	1399.065551757812	99.92057800292969	1074.20458984375	1572.13671875	162.3312683105469	1134.238159179688	1562.045288085938	255.0722351074219	1210.55810546875	1433.749755859375	236.8754425048828	1240.726440429688	1215.928833007812	240.6461029052734	1183.409057617188	1203.247802734375	174.5435028076172	1213.969482421875	950.4509887695312	326.9609069824219	1239.592529296875	931.441650390625	243.6825866699219	1251.130493164062	1099.362670898438	250.6414184570312	1196.742065429688	757.1820068359375	325.3389587402344	1243.032348632812	854.2763061523438	267.2673950195312	1228.41015625	859.5718994140625	335.4008483886719	786.841796875	1561.091918945312	193.0193939208984	728.3328857421875	1485.041259765625	168.8623199462891	717.8941650390625	1189.024169921875	164.5179901123047	814.8309936523438	1191.378051757812	168.8763732910156	716.2127075195312	972.5012817382812	345.2230224609375	696.2597045898438	941.1786499023438	270.4515991210938	701.3284912109375	1118.802490234375	194.7240753173828	738.6009521484375	786.4774780273438	407.5635986328125	709.1318359375	870.5419311523438	392.773681640625	689.5213623046875	849.037109375	323.6333312988281	885.9472045898438	1754.805786132812	181.8662567138672	942.7939453125	1824.3984375	383.2023010253906	823.1746215820312	1807.87646484375	339.6825866699219	1013.444152832031	1776.884765625	219.6429138183594	1144.109985351562	1030.601318359375	283.0159606933594	783.9976196289062	1002.04052734375	268.6450805664062	822.0563354492188	1079.122680664062	356.7987060546875	1085.596313476562	1095.653564453125	383.1721801757812	1134.541748046875	543.6245727539062	461.1182861328125	1159.417724609375	686.6051025390625	397.0819091796875	1229.872680664062	190.5725860595703	68.904541015625	1205.879272460938	387.993408203125	245.1273040771484	1194.839721679688	47.25431442260742	243.0173797607422	1152.606811523438	88.50956726074219	185.9226531982422	1261.635131835938	107.8473129272461	155.873291015625	1163.527954101562	227.2643280029297	18.96968269348145	905.2831420898438	516.503173828125	285.6755981445312	820.5980834960938	787.1124267578125	294.4855346679688	1038.732543945312	23.55038261413574	222.6660919189453	924.959716796875	382.9280395507812	267.3861999511719	1033.7958984375	36.08640670776367	461.2702026367188	1087.986572265625	32.52008819580078	411.7135620117188	986.757080078125	38.50471878051758	346.7501220703125	1099.322387695312	24.69804763793945	180.1204223632812	
546	5.45	913.2684936523438	1105.347412109375	164.2076568603516	1045.7734375	1110.510620117188	185.2372741699219	981.2476196289062	1142.162841796875	166.0993194580078	942.9361572265625	1345.299072265625	386.2676696777344	979.591064453125	1295.53173828125	133.2069854736328	973.91064453125	1587.941772460938	165.8926086425781	946.757568359375	1479.703735351562	348.5660095214844	900.6566162109375	1399.527954101562	105.9311218261719	1075.557250976562	1572.426147460938	171.6546783447266	1134.044067382812	1562.21923828125	265.4600524902344	1210.68701171875	1433.988159179688	247.8159790039062	1240.730102539062	1216.201904296875	250.1008911132812	1184.23974609375	1204.112060546875	183.1995544433594	1213.12939453125	949.7965087890625	333.3266296386719	1239.725708007812	931.6849365234375	250.1461639404297	1251.077514648438	1099.553588867188	259.0750427246094	1195.802124023438	756.5458374023438	329.3266296386719	1242.808715820312	854.2395629882812	272.9044799804688	1227.361938476562	858.7802124023438	340.8994750976562	787.7442016601562	1561.565795898438	197.2761535644531	729.55126953125	1485.503051757812	172.2380218505859	718.4762573242188	1189.224243164062	169.2533264160156	815.4491577148438	1191.530029296875	174.5339508056641	714.6116333007812	975.6085205078125	353.3680114746094	695.3153686523438	943.0037841796875	278.9223022460938	701.4692993164062	1119.309814453125	200.2967987060547	735.7195434570312	790.6437377929688	419.2903137207031	706.6781616210938	874.549560546875	402.6191101074219	687.7816772460938	851.8101196289062	333.7192687988281	886.6943969726562	1755.1650390625	188.5673065185547	941.791015625	1824.682739257812	390.3831481933594	822.5376586914062	1808.404174804688	345.7594299316406	1013.855895996094	1777.056274414062	227.3669738769531	1143.410400390625	1031.229736328125	295.2358093261719	783.7425537109375	1001.869140625	271.5306701660156	819.52294921875	1079.223999023438	360.6629028320312	1082.324951171875	1096.362548828125	393.2845153808594	1127.947021484375	546.2730102539062	477.2132263183594	1155.237670898438	688.3502807617188	412.5194091796875	1235.437622070312	182.5333251953125	99.17935943603516	1205.702270507812	385.1146850585938	267.3969421386719	1198.104858398438	46.9093017578125	278.7875366210938	1156.791259765625	84.72370910644531	218.5867919921875	1266.259887695312	104.9317016601562	191.0359344482422	1170.106079101562	215.6981658935547	45.39479827880859	905.2744140625	516.5524291992188	287.7594604492188	820.3320922851562	787.1159057617188	296.9283752441406	1038.882934570312	23.81975173950195	222.7390747070312	925.4678955078125	383.0278930664062	268.9552307128906	1033.945678710938	35.73168182373047	461.5322570800781	1088.077392578125	32.50323867797852	411.9761352539062	986.78125	38.40850067138672	346.8201293945312	1099.359497070312	25.10252571105957	180.2000427246094	
547	5.46	915.9186401367188	1105.787719726562	170.0667419433594	1047.678466796875	1110.706176757812	194.7297515869141	983.5372314453125	1142.47412109375	173.7339172363281	940.1376953125	1345.498168945312	392.9499816894531	981.6317749023438	1295.891357421875	140.9983825683594	975.4174194335938	1588.325073242188	173.4149169921875	944.9137573242188	1479.911499023438	355.4712829589844	903.0696411132812	1399.975463867188	111.9482116699219	1076.86328125	1572.703369140625	181.020751953125	1133.739990234375	1562.376220703125	275.8893127441406	1210.710327148438	1434.205322265625	258.8542785644531	1240.675170898438	1216.471923828125	259.7581481933594	1185.117065429688	1204.9638671875	192.0060119628906	1212.182495117188	949.1909790039062	339.8977355957031	1239.875122070312	931.9544067382812	256.8725891113281	1250.984741210938	1099.766235351562	267.7429809570312	1194.806518554688	755.9679565429688	333.5045471191406	1242.615356445312	854.253173828125	278.8330993652344	1226.207763671875	858.0489501953125	346.6407470703125	788.6865844726562	1562.019897460938	201.4772644042969	730.8090209960938	1485.937133789062	175.5552825927734	719.109130859375	1189.420654296875	173.8727111816406	816.1131591796875	1191.689819335938	180.0579071044922	712.987060546875	978.6405639648438	361.1953430175781	694.3280029296875	944.8218383789062	287.1001892089844	701.636962890625	1119.806884765625	205.7165069580078	732.8114013671875	794.752685546875	430.5233154296875	704.2031860351562	878.4732666015625	412.0508728027344	686.003662109375	854.5610961914062	343.395751953125	887.396484375	1755.476440429688	195.2787475585938	940.6974487304688	1824.959594726562	397.5634460449219	821.8167114257812	1808.89013671875	351.7883605957031	1014.187561035156	1777.177734375	235.1904754638672	1142.542602539062	1031.822143554688	307.4112854003906	783.5422973632812	1001.684204101562	274.384521484375	817.0148315429688	1079.292724609375	364.3580322265625	1078.921020507812	1097.0322265625	403.302978515625	1120.9609375	548.80419921875	492.7084655761719	1150.668334960938	689.99853515625	427.5665893554688	1239.923706054688	174.0728302001953	130.0874938964844	1204.943481445312	381.8695983886719	289.727294921875	1199.219848632812	46.50499725341797	314.77587890625	1159.27880859375	80.98780059814453	251.6672058105469	1269.171264648438	101.677848815918	226.5786895751953	1175.956176757812	203.8430023193359	72.57613372802734	905.313720703125	516.6010131835938	289.9928894042969	820.0992431640625	787.1544189453125	299.3614807128906	1039.018188476562	24.14809226989746	222.7985687255859	926.0634765625	383.1097717285156	270.6943054199219	1034.117553710938	35.37598419189453	461.8001708984375	1088.186889648438	32.48638153076172	412.2611694335938	986.8214721679688	38.34251022338867	346.8975524902344	1099.34619140625	25.55816078186035	180.2808837890625	
548	5.47	918.5969848632812	1106.19482421875	175.9449768066406	1049.691650390625	1111.059936523438	204.0162658691406	985.8251953125	1142.785278320312	181.4010925292969	937.2903442382812	1345.656494140625	399.5264892578125	983.536376953125	1296.21044921875	148.8977355957031	976.8806762695312	1588.677368164062	180.9606475830078	943.0228881835938	1480.091918945312	362.3253784179688	905.5194702148438	1400.40478515625	117.9733734130859	1078.11279296875	1572.969360351562	190.4175415039062	1133.321655273438	1562.519287109375	286.3404541015625	1210.62060546875	1434.403564453125	269.9747924804688	1240.547607421875	1216.736938476562	269.611083984375	1186.021362304688	1205.797485351562	200.9704895019531	1211.137939453125	948.63232421875	346.6835327148438	1240.0234375	932.2476806640625	263.8712768554688	1250.84228515625	1100.004028320312	276.6387939453125	1193.7763671875	755.4483642578125	337.8966064453125	1242.447021484375	854.3131103515625	285.062744140625	1224.9677734375	857.3787841796875	352.6352233886719	789.6573486328125	1562.445678710938	205.6427307128906	732.1079711914062	1486.338256835938	178.835693359375	719.7965698242188	1189.61181640625	178.3909454345703	816.8171997070312	1191.847900390625	185.4831085205078	711.33837890625	981.5692749023438	368.7017211914062	693.3052368164062	946.61376953125	294.9797973632812	701.8300170898438	1120.287231445312	211.0050354003906	729.8927001953125	798.75927734375	441.2439270019531	701.7122192382812	882.2758178710938	421.06005859375	684.1891479492188	857.2646484375	352.6347351074219	888.0518798828125	1755.747314453125	202.001953125	939.52001953125	1825.2099609375	404.7457580566406	821.012939453125	1809.328735351562	357.7804870605469	1014.442810058594	1777.2548828125	243.111572265625	1141.512329101562	1032.38427734375	319.4994201660156	783.4177856445312	1001.516235351562	277.229248046875	814.5449829101562	1079.33544921875	367.9111633300781	1075.401489257812	1097.64990234375	413.2201232910156	1113.63330078125	551.2092895507812	507.6046752929688	1145.765502929688	691.5469360351562	442.2063903808594	1243.229736328125	165.2967224121094	161.5503387451172	1203.5859375	378.3086242675781	312.1162719726562	1198.114624023438	46.06093597412109	350.7809753417969	1159.928955078125	77.27508544921875	284.9502868652344	1270.284790039062	98.11956787109375	262.3587646484375	1180.949829101562	191.8382720947266	100.4857330322266	905.3850708007812	516.6427612304688	292.3741760253906	819.8665161132812	787.2078247070312	301.8000183105469	1039.169677734375	24.50848579406738	222.8530883789062	926.725341796875	383.1591796875	272.5877990722656	1034.288452148438	35.03546142578125	462.0671691894531	1088.307739257812	32.46328735351562	412.552734375	986.878173828125	38.30044937133789	346.9807739257812	1099.345092773438	26.03790092468262	180.3816070556641	
